<?xml version="1.0" encoding="utf-8"?>
<!-- Generator: Adobe Illustrator 16.0.0, SVG Export Plug-In . SVG Version: 6.00 Build 0)  -->
<!DOCTYPE svg PUBLIC "-//W3C//DTD SVG 1.1//EN" "http://www.w3.org/Graphics/SVG/1.1/DTD/svg11.dtd">
<svg version="1.1" id="Capa_1" xmlns="http://www.w3.org/2000/svg" xmlns:xlink="http://www.w3.org/1999/xlink" x="0px" y="0px"
	 width="35px" height="23.937px" viewBox="112.5 410.784 35 23.937" enable-background="new 112.5 410.784 35 23.937"
	 xml:space="preserve">
<g>
	<path fill="#141C1F" d="M142.156,423.795h-0.95c-0.886,0-1.606,0.721-1.606,1.605v2.037h-5.204v-3.236
		c1.897-0.612,3.1-3.149,3.1-6.652c0-3.765-1.388-6.418-3.538-6.758c-0.027-0.005-0.054-0.006-0.082-0.006h-20.816
		c-0.251,0-0.464,0.178-0.511,0.424h-0.002c-0.009,0.056-0.244,1.378,0.647,2.454c0.592,0.713,1.52,1.128,2.754,1.246
		c-0.185,0.828-0.288,1.723-0.288,2.642c0,3.793,1.602,6.765,3.644,6.765h10.928v6.748c0,0.87,0.708,1.579,1.579,1.579h1.008
		c0.679,0,1.257-0.437,1.478-1.04h5.304v1.514c0,0.889,0.722,1.606,1.606,1.606h0.95c0.886,0,1.606-0.718,1.606-1.606V425.4
		C143.763,424.515,143.042,423.795,142.156,423.795z M133.83,411.825c1.248,0.227,2.491,1.917,2.613,5.204h-10.68l-1.93-1.93
		c-0.098-0.097-0.229-0.151-0.367-0.151h-1.042h-0.182h-2.073h-0.557c-0.004-0.007-0.011-0.016-0.016-0.021
		c-0.052-0.086-0.111-0.172-0.176-0.259c-0.036-0.046-0.074-0.092-0.111-0.141c-0.019-0.02-0.035-0.042-0.052-0.063
		c-0.021-0.024-0.042-0.049-0.065-0.073c-0.022-0.026-0.042-0.053-0.064-0.077c-0.01-0.011-0.021-0.018-0.029-0.026
		c-0.06-0.063-0.119-0.127-0.185-0.19c-0.04-0.04-0.082-0.081-0.125-0.121c-0.104-0.096-0.212-0.193-0.329-0.291
		c-0.094-0.079-0.19-0.155-0.29-0.232c-0.045-0.034-0.09-0.07-0.139-0.104c-0.786-0.589-1.697-1.111-2.521-1.524H133.83z
		 M119.823,416.854c0,1.088-0.312,1.808-0.521,2.12c-0.208-0.314-0.52-1.032-0.52-2.12c0-0.419,0.045-0.773,0.11-1.068
		c0.002,0.003,0.007,0.005,0.009,0.007c0.043,0.054,0.096,0.096,0.157,0.127c0.014,0.009,0.026,0.013,0.04,0.019
		c0.063,0.028,0.132,0.048,0.206,0.048h0.448C119.799,416.264,119.823,416.556,119.823,416.854z M114.001,413.007
		c-0.25-0.298-0.362-0.634-0.411-0.924c0.784,0.337,1.826,0.836,2.786,1.415c-0.051,0.127-0.098,0.261-0.143,0.395
		C115.191,413.826,114.441,413.529,114.001,413.007z M116.7,417.549c0-1.259,0.201-2.469,0.565-3.471
		c0.011,0.008,0.022,0.014,0.033,0.022c0.319,0.232,0.589,0.458,0.821,0.678c-0.186,0.448-0.379,1.143-0.379,2.076
		c0,1.757,0.731,3.296,1.562,3.296c0.832,0,1.562-1.539,1.562-3.296c0-0.297-0.024-0.584-0.064-0.866h1
		c0.07,0.514,0.105,1.036,0.105,1.561c0,3.224-1.397,5.725-2.602,5.725C118.074,423.274,116.7,420.923,116.7,417.549z
		 M121.215,423.274c0.014-0.018,0.027-0.039,0.042-0.058c0.1-0.12,0.195-0.249,0.288-0.386c0.016-0.022,0.033-0.042,0.049-0.066
		c0.106-0.162,0.207-0.338,0.303-0.521c0.027-0.049,0.049-0.103,0.074-0.152c0.072-0.142,0.138-0.285,0.202-0.437
		c0.026-0.065,0.052-0.13,0.079-0.195c0.061-0.159,0.119-0.322,0.172-0.489c0.02-0.056,0.039-0.109,0.054-0.164
		c0.069-0.225,0.13-0.456,0.185-0.692c0.011-0.049,0.019-0.096,0.029-0.144c0.042-0.194,0.08-0.39,0.11-0.59
		c0.012-0.082,0.024-0.163,0.036-0.243c0.023-0.183,0.044-0.367,0.06-0.552c0.006-0.079,0.015-0.158,0.021-0.238
		c0.017-0.262,0.029-0.528,0.029-0.797v-1.561h0.304l1.929,1.93c0.099,0.097,0.231,0.151,0.369,0.151h10.894
		c-0.12,3.287-1.364,4.978-2.611,5.205h-3.6H121.215z M132.817,431.601h-1.006c-0.298,0-0.538-0.241-0.538-0.539v-6.748h2.081v3.123
		v3.625C133.354,431.36,133.114,431.601,132.817,431.601z M134.396,430.558v-2.08h5.202v2.08H134.396z M142.723,433.115
		c0,0.312-0.255,0.566-0.566,0.566h-0.95c-0.313,0-0.566-0.255-0.566-0.566v-1.517v-4.161V425.4c0-0.312,0.254-0.565,0.566-0.565
		h0.95c0.312,0,0.566,0.254,0.566,0.565V433.115z"/>
</g>
</svg>
