<?xml version="1.0" encoding="utf-8"?>
<!-- Generator: Adobe Illustrator 16.0.0, SVG Export Plug-In . SVG Version: 6.00 Build 0)  -->
<!DOCTYPE svg PUBLIC "-//W3C//DTD SVG 1.1//EN" "http://www.w3.org/Graphics/SVG/1.1/DTD/svg11.dtd">
<svg version="1.1" id="Capa_1" xmlns="http://www.w3.org/2000/svg" xmlns:xlink="http://www.w3.org/1999/xlink" x="0px" y="0px"
	 width="35px" height="20.322px" viewBox="112.5 410.784 35 20.322" enable-background="new 112.5 410.784 35 20.322"
	 xml:space="preserve">
<g>
	<g>
		<g>
			<path fill="#141C1F" d="M145.109,422.609c0.09-0.551,0.138-1.109,0.138-1.661c0-5.603-4.562-10.164-10.164-10.164
				c-3.7,0-7.036,1.964-8.841,5.168c-0.944-0.427-1.978-0.647-3.019-0.647c-3.894,0-7.091,3.045-7.325,6.918
				c-1.964,0.503-3.397,2.302-3.397,4.369c0,2.487,2.026,4.514,4.514,4.514h25.973c2.487,0,4.514-2.026,4.514-4.514
				C147.507,424.904,146.583,423.388,145.109,422.609z M142.993,429.983h-25.979c-1.868,0-3.391-1.523-3.391-3.391
				c0-3.226,3.391-3.459,3.391-3.459v-0.49c0-3.424,2.784-6.208,6.208-6.208c2.026,0,3.5,1.047,3.5,1.047s2.336-5.568,8.353-5.568
				c4.981,0,9.034,4.052,9.034,9.034c0,1.489-0.29,2.329-0.29,2.329s2.55,0.662,2.55,3.315
				C146.376,428.46,144.861,429.983,142.993,429.983z"/>
		</g>
	</g>
	<g>
		<g>
			<path fill="#141C1F" d="M135.082,413.61v1.13c3.425,0,6.209,2.784,6.209,6.208h1.13
				C142.428,416.904,139.134,413.61,135.082,413.61z"/>
		</g>
	</g>
</g>
</svg>
