<?xml version="1.0" encoding="utf-8"?>
<!-- Generator: Adobe Illustrator 16.0.0, SVG Export Plug-In . SVG Version: 6.00 Build 0)  -->
<!DOCTYPE svg PUBLIC "-//W3C//DTD SVG 1.1//EN" "http://www.w3.org/Graphics/SVG/1.1/DTD/svg11.dtd">
<svg version="1.1" id="Warstwa_1" xmlns="http://www.w3.org/2000/svg" xmlns:xlink="http://www.w3.org/1999/xlink" x="0px" y="0px"
	 width="100px" height="100px" viewBox="0 0 100 100" enable-background="new 0 0 100 100" xml:space="preserve">
<g>
	<circle id="XMLID_30_" fill="none" stroke="#C9C9C9" stroke-miterlimit="10" cx="50" cy="50" r="47.5"/>
	<g>
		<path fill="#141C1F" d="M23.927,51.791c-0.143,6.882,4.598,13.449,11.119,15.592c6.141,2.063,13.693,0.519,17.78-4.74
			c2.984-3.687,3.661-8.601,3.34-13.19c-5.261-0.047-10.521-0.031-15.772-0.023c-0.009,1.874,0,3.741,0.008,5.615
			c3.15,0.087,6.3,0.047,9.449,0.11c-0.795,2.724-2.606,5.26-5.354,6.244c-5.308,2.339-12.079-0.717-13.749-6.283
			c-2.016-5.332,1.284-11.766,6.733-13.317c3.378-1.188,6.858,0.15,9.749,1.906c1.465-1.37,2.835-2.835,4.182-4.315
			c-3.284-2.749-7.505-4.434-11.844-4.063C31.053,35.427,23.603,43.286,23.927,51.791z"/>
		<path fill="#141C1F" d="M66.402,44.702c-0.017,1.567-0.031,3.143-0.039,4.709c-1.576,0.016-3.143,0.023-4.71,0.031
			c0,1.567,0,3.126,0,4.693c1.567,0.008,3.143,0.016,4.71,0.031c0.017,1.568,0.017,3.135,0.031,4.71c1.559,0,3.126-0.008,4.693,0
			c0.008-1.575,0.016-3.142,0.031-4.717c1.566-0.009,3.142-0.017,4.709-0.023c0-1.567,0-3.126,0-4.692
			c-1.566-0.008-3.143-0.016-4.709-0.032c-0.008-1.567-0.023-3.142-0.031-4.709C69.521,44.702,67.962,44.702,66.402,44.702z"/>
		<g>
			<path fill="#141C1F" d="M23.927,51.791c-0.324-8.505,7.125-16.364,15.638-16.466c4.339-0.37,8.561,1.315,11.843,4.063
				c-1.347,1.481-2.717,2.946-4.181,4.316c-2.892-1.756-6.372-3.094-9.75-1.905c-5.449,1.551-8.75,7.984-6.732,13.316
				c1.669,5.567,8.441,8.622,13.749,6.282c2.749-0.982,4.56-3.519,5.355-6.243c-3.15-0.063-6.3-0.023-9.449-0.111
				c-0.008-1.874-0.016-3.741-0.008-5.615c5.252-0.008,10.512-0.024,15.772,0.023c0.323,4.592-0.354,9.505-3.34,13.189
				c-4.086,5.261-11.638,6.804-17.78,4.74C28.526,65.24,23.784,58.673,23.927,51.791z"/>
			<path fill="#141C1F" d="M66.402,44.702c1.561,0,3.118,0,4.686,0c0.008,1.567,0.023,3.143,0.031,4.709
				c1.566,0.016,3.142,0.023,4.709,0.031c0,1.567,0,3.126,0,4.693c-1.566,0.008-3.143,0.016-4.709,0.023
				c-0.016,1.575-0.023,3.142-0.031,4.718c-1.567-0.009-3.135,0-4.693,0c-0.017-1.576-0.017-3.143-0.031-4.71
				c-1.567-0.017-3.143-0.023-4.71-0.032c0-1.566,0-3.125,0-4.693c1.567-0.008,3.134-0.017,4.71-0.031
				C66.371,47.845,66.386,46.271,66.402,44.702z"/>
		</g>
	</g>
</g>
</svg>
