<?xml version="1.0" encoding="utf-8"?>
<!-- Generator: Adobe Illustrator 16.0.0, SVG Export Plug-In . SVG Version: 6.00 Build 0)  -->
<!DOCTYPE svg PUBLIC "-//W3C//DTD SVG 1.1//EN" "http://www.w3.org/Graphics/SVG/1.1/DTD/svg11.dtd">
<svg version="1.1" id="Warstwa_1" xmlns="http://www.w3.org/2000/svg" xmlns:xlink="http://www.w3.org/1999/xlink" x="0px" y="0px"
	 width="260px" height="52.333px" viewBox="0 0 260 52.333" enable-background="new 0 0 260 52.333" xml:space="preserve">
<path fill-rule="evenodd" clip-rule="evenodd" fill="#040007" d="M89.676,21.209c-0.878,2.347-3.61,7.759-4.916,10.686
	c-0.426,0.95-1.044,2.846-1.51,3.65l-4.934-14.384H71.85l-5.773,13.141l-6.101-13.536l-0.33,0.011l-5.961,13.63
	c-0.354-0.388-4.523-10.774-5.636-13.245l-4.997,0.02l10.504,21.412c0.812-0.881,5.429-12.15,6.249-14.256l6.209,14.254
	l8.872-17.772c1.423,3.139,3.942,9.865,5.398,13.489c0.809,2.01,0.563,1.488-0.315,3.303l-4.607,9.521l4.725,0.004
	c4.643-8.379,8.353-17.289,12.708-25.834l2.677-0.002v16.238l4.654,0.001V25.276l3.567-0.015l0.007-4.098l-3.571-0.042l-0.003-7.684
	l-4.62,0.007l-0.038,7.744L89.676,21.209z"/>
<path fill-rule="evenodd" clip-rule="evenodd" fill="#040007" d="M155.064,24.317c-0.927-1.722-2.011-2.883-4.147-3.493
	c-6.248-1.786-11.706,2.597-11.728,10.463c-0.022,8.11,5.275,12.374,11.438,10.822c2.475-0.623,3.185-1.841,4.474-3.105
	c0.099,3.382,0.119,6.788-2.714,7.852c-1.297,0.487-3.335,0.593-4.732,0.266c-2.749-0.642-2.111-2.329-2.79-2.505l-4.709,0.053
	c0.426,8.195,14.826,8.128,18.063,2.975c1.934-3.08,1.555-8.395,1.555-12.41c0-4.661,0-9.323,0-14.058l-4.642-0.001L155.064,24.317z
	 M148.336,24.764c8.456-1.97,9.033,11.734,2.67,13.297c-4.083,1-6.486-1.706-6.871-5.235
	C143.695,28.805,145.032,25.535,148.336,24.764z"/>
<path fill-rule="evenodd" clip-rule="evenodd" fill="#040007" d="M119.182,24.225c-0.882-0.894-1.204-2.564-4.207-3.412
	c-6.212-1.752-11.677,2.635-11.699,10.474c-0.023,8.051,5.158,12.335,11.407,10.817c2.96-0.721,3.839-2.588,4.511-3.051l0.014,2.48
	l4.649-0.027V21.164l-4.645,0.056L119.182,24.225z M112.594,24.708c8.487-1.569,8.776,12.124,2.216,13.409
	c-4.109,0.806-6.33-1.995-6.626-5.642C107.87,28.632,109.259,25.325,112.594,24.708z"/>
<path fill-rule="evenodd" clip-rule="evenodd" fill="#040007" d="M22.216,32.708c0.641,5.601,5.923,10.301,12.396,9.58
	c5.641-0.629,10.536-5.601,9.827-12.108c-0.652-5.994-6.261-10.327-12.491-9.633C26.236,21.183,21.47,26.2,22.216,32.708
	 M32.154,24.782c3.859-0.814,6.867,2.2,7.342,5.416c1.357,9.176-11.011,10.89-12.353,2.457C26.498,28.6,28.945,25.459,32.154,24.782
	z"/>
<path fill-rule="evenodd" clip-rule="evenodd" fill="#040007" d="M0.729,21.186v20.334l4.667-0.045
	c0.009-3.645-0.131-7.518,0.042-11.135c0.161-3.354,1.47-5.631,5.219-5.886c4.345-0.294,4.892,2.133,4.969,6.049
	c0.072,3.65,0.02,7.38,0.007,11.035l4.699,0.001c0.002-3.365,0.001-6.729,0.001-10.093c0-3.321,0.357-6.413-1.438-8.701
	c-1.452-1.851-4.368-2.577-7.585-2.174c-4.022,0.503-5.258,2.348-6.187,3.807L5.12,21.165L0.729,21.186z"/>
<path fill-rule="evenodd" clip-rule="evenodd" fill="#040007" d="M132.121,21.173h-4.598l-0.002,20.366l4.582,0.001
	c-0.002-3.702-0.281-8.71,0.187-12.256c0.412-3.113,1.585-5,4.686-4.741c1.189,0.1,1.487,0.443,2.356,0.758l1.61-3.945
	c-2.546-0.89-5.3-1.793-7.583,0.79c-0.575,0.649-0.768,1.383-1.239,2.087L132.121,21.173z"/>
<path fill-rule="evenodd" clip-rule="evenodd" fill="#E30613" d="M163.925,19.126h4.888c0.811-5.68,6.104-5.608,8.614-3.837
	c1.267,0.893,2.043,3.204,1.514,5.456c-0.429,1.823-1.633,3.668-2.535,4.871c-1.854,2.472-4.54,5.548-6.549,7.962
	c-1.138,1.364-2.206,2.624-3.308,3.946l-3.334,3.96l21.02,0.056l-0.001-4.037l-11.889-0.053c0.339-0.512,0.423-0.594,0.904-1.112
	l6.924-8.218c2.222-2.865,5.32-7.649,3.505-12.776C180.66,6.813,163.441,8.211,163.925,19.126 M198.719,41.513v-6.392l3.776-0.013
	l-0.047-3.517l-3.752-0.034l-0.034-21.689l-1.425,0.008c-1.379,2.129-3.058,4.18-4.55,6.315l-9.129,12.634
	c-0.618,0.827-4.336,5.846-4.474,6.355l14.943,0.053v6.311L198.719,41.513z M186.215,31.582c0.216-0.42,0.64-0.943,0.937-1.371
	l6.916-9.619l-0.039,11.022L186.215,31.582z M204.362,41.067c0.14,1.629,1.615,2.949,3.406,2.803
	c1.64-0.135,3.007-1.591,2.855-3.424C210.302,36.547,204.003,36.84,204.362,41.067z"/>
<path fill-rule="evenodd" clip-rule="evenodd" fill="#E30613" d="M234.711,1.551c-13.266,0-24.018,10.752-24.018,24.017
	s10.752,24.017,24.018,24.017c13.264,0,24.016-10.753,24.016-24.017S247.975,1.551,234.711,1.551"/>
<path fill="#FFFFFF" d="M255.998,14.441l-12.088,25.39h-0.292L233.117,17.71h-6.956v22.157h-5.101V17.71h-9.05
	c0.55-1.588,1.26-3.102,2.114-4.519h16.848h2.806h2.807l7.18,15.452l7.179-15.452h4.353C255.541,13.6,255.776,14.017,255.998,14.441
	"/>
</svg>
