<?xml version="1.0" encoding="utf-8"?>
<!-- Generator: Adobe Illustrator 16.0.0, SVG Export Plug-In . SVG Version: 6.00 Build 0)  -->
<!DOCTYPE svg PUBLIC "-//W3C//DTD SVG 1.1//EN" "http://www.w3.org/Graphics/SVG/1.1/DTD/svg11.dtd">
<svg version="1.1" id="Layer_1" xmlns="http://www.w3.org/2000/svg" xmlns:xlink="http://www.w3.org/1999/xlink" x="0px" y="0px"
	 width="40px" height="40px" viewBox="236 236 40 40" enable-background="new 236 236 40 40" xml:space="preserve">
<g>
	<g>
		<g>
			<g>
				<path fill="#FFFFFF" d="M256,236c-11.028,0-20,8.972-20,20c0,11.028,8.972,20,20,20c11.029,0,20-8.972,20-20
					C276,244.972,267.03,236,256,236z M256,274.334c-10.109,0-18.333-8.225-18.333-18.334c0-10.109,8.224-18.333,18.333-18.333
					c10.109,0,18.334,8.224,18.334,18.333C274.334,266.109,266.11,274.334,256,274.334z"/>
				<path fill="#FFFFFF" d="M263.951,255.299l-11.667-7.5c-0.256-0.167-0.586-0.176-0.85-0.031
					c-0.269,0.146-0.435,0.426-0.435,0.731v15c0,0.306,0.166,0.585,0.435,0.732c0.124,0.066,0.262,0.102,0.398,0.102
					c0.156,0,0.314-0.045,0.451-0.133l11.667-7.5c0.237-0.153,0.383-0.418,0.383-0.701S264.189,255.452,263.951,255.299z
					 M252.667,261.973v-11.947l9.292,5.974L252.667,261.973z"/>
			</g>
		</g>
	</g>
</g>
</svg>
