<?xml version="1.0" encoding="utf-8"?>
<!-- Generator: Adobe Illustrator 16.0.0, SVG Export Plug-In . SVG Version: 6.00 Build 0)  -->
<!DOCTYPE svg PUBLIC "-//W3C//DTD SVG 1.1//EN" "http://www.w3.org/Graphics/SVG/1.1/DTD/svg11.dtd">
<svg version="1.1" id="Capa_1" xmlns="http://www.w3.org/2000/svg" xmlns:xlink="http://www.w3.org/1999/xlink" x="0px" y="0px"
	 width="16px" height="16px" viewBox="248 248.001 16 16" enable-background="new 248 248.001 16 16" xml:space="preserve">
<path fill="#CED4DA" d="M259.741,258.328c0.788-1.075,1.259-2.396,1.259-3.827c0-3.584-2.916-6.5-6.5-6.5s-6.5,2.916-6.5,6.5
	s2.916,6.5,6.5,6.5c1.432,0,2.752-0.471,3.827-1.259l4.26,4.259l1.413-1.415L259.741,258.328L259.741,258.328z M254.5,259.001
	c-2.481,0-4.5-2.018-4.5-4.5c0-2.481,2.019-4.5,4.5-4.5s4.5,2.019,4.5,4.5C259,256.983,256.982,259.001,254.5,259.001L254.5,259.001
	z"/>
</svg>
