<?xml version="1.0" encoding="utf-8"?>
<!-- Generator: Adobe Illustrator 16.0.0, SVG Export Plug-In . SVG Version: 6.00 Build 0)  -->
<!DOCTYPE svg PUBLIC "-//W3C//DTD SVG 1.1//EN" "http://www.w3.org/Graphics/SVG/1.1/DTD/svg11.dtd">
<svg version="1.1" id="Warstwa_1" xmlns="http://www.w3.org/2000/svg" xmlns:xlink="http://www.w3.org/1999/xlink" x="0px" y="0px"
	 width="100px" height="100px" viewBox="0 0 100 100" enable-background="new 0 0 100 100" xml:space="preserve">
<circle fill="none" stroke="#C9C9C9" stroke-miterlimit="10" cx="50" cy="50" r="47.5"/>
<path d="M69.826,49.989L51.75,30.167v11.874h-2.101c-5.202,0-10.092,2.026-13.771,5.705c-3.678,3.679-5.704,8.569-5.704,13.772
	v8.316l3.47-3.803c4.64-5.084,11.229-8.023,18.107-8.092v11.873L69.826,49.989z M32.498,63.857v-2.34
	c0-4.582,1.784-8.89,5.023-12.129c3.24-3.239,7.546-5.023,12.128-5.023h4.425v-8.2l12.607,13.824L54.074,63.814v-8.201h-2.088
	C44.651,55.613,37.595,58.609,32.498,63.857z"/>
</svg>
