<?xml version="1.0" encoding="utf-8"?>
<!-- Generator: Adobe Illustrator 16.0.0, SVG Export Plug-In . SVG Version: 6.00 Build 0)  -->
<!DOCTYPE svg PUBLIC "-//W3C//DTD SVG 1.1//EN" "http://www.w3.org/Graphics/SVG/1.1/DTD/svg11.dtd">
<svg version="1.1" id="Warstwa_1" xmlns="http://www.w3.org/2000/svg" xmlns:xlink="http://www.w3.org/1999/xlink" x="0px" y="0px"
	 width="100px" height="100px" viewBox="0 0 100 100" enable-background="new 0 0 100 100" xml:space="preserve">
<g>
	<circle fill="#FFFFFF" stroke="#C9C9C9" stroke-miterlimit="10" cx="50" cy="50" r="47.5"/>
	<g>
		<path fill="#141C1F" d="M75.791,38.155c-1.804,0.8-3.745,1.341-5.781,1.583c2.079-1.246,3.674-3.215,4.426-5.567
			c-1.943,1.153-4.099,1.991-6.39,2.441c-1.837-1.956-4.452-3.177-7.349-3.177c-5.558,0-10.064,4.508-10.064,10.064
			c0,0.789,0.089,1.557,0.262,2.294c-8.363-0.419-15.779-4.426-20.744-10.517c-0.867,1.486-1.363,3.216-1.363,5.06
			c0,3.49,1.777,6.573,4.477,8.376c-1.649-0.051-3.202-0.504-4.559-1.26c-0.001,0.042-0.001,0.086-0.001,0.127
			c0,4.876,3.471,8.944,8.074,9.869c-0.844,0.229-1.734,0.354-2.651,0.354c-0.65,0-1.28-0.063-1.894-0.182
			c1.281,3.998,4.997,6.907,9.402,6.991c-3.446,2.698-7.784,4.307-12.501,4.307c-0.811,0-1.614-0.047-2.4-0.141
			c4.451,2.856,9.742,4.521,15.426,4.521c18.511,0,28.634-15.335,28.634-28.635c0-0.437-0.01-0.871-0.028-1.301
			C72.737,41.945,74.442,40.173,75.791,38.155L75.791,38.155z"/>
	</g>
</g>
</svg>
